<?xml version="1.0" encoding="UTF-8"?>
<svg xmlns="http://www.w3.org/2000/svg" viewBox="0 0 512 512" width="512" height="512">
  <rect width="512" height="512" rx="96" fill="#17130D"/>
  <rect width="512" height="512" rx="96" fill="none" stroke="#2A2418" stroke-width="2"/>
  <g transform="translate(256 256) scale(2.15)">
    <path d="M-12 -86 C -12 -88 -10 -90 -8 -90 C -6 -90 -4 -88 -4 -86 L -4 -62 C -4 -60 -6 -58 -8 -58 C -10 -58 -12 -60 -12 -62 Z" fill="#E84A2E"/>
    <path d="M-56 -82 C -64 -88 -72 -88 -78 -82 C -88 -74 -88 -56 -76 -50 C -84 -42 -86 -24 -74 -18 C -80 -12 -80 -2 -70 0 C -62 2 -54 -2 -50 -8 C -46 -12 -42 -16 -40 -22 C -34 -34 -40 -60 -56 -82 Z" fill="#2E9E4F"/>
    <circle cx="256" cy="256" transform="translate(-256 -256)" />
    <circle cx="-12" cy="0" r="30" fill="#FFD23F"/>
    <circle cx="-12" cy="0" r="30" fill="none" stroke="#B98A2A" stroke-width="3" opacity="0.5"/>
    <circle cx="-12" cy="0" r="14" fill="#FFE96B"/>
    <path d="M-12 -14 C -18 -10 -22 -4 -22 0 C -22 6 -18 12 -12 14 C -6 12 -2 6 -2 0 C -2 -4 -6 -10 -12 -14 Z" fill="#F2A900" opacity="0.85"/>
    <circle cx="-24" cy="-14" r="10" fill="#E84A2E"/>
    <circle cx="2" cy="14" r="8" fill="#FF8A3C"/>
    <circle cx="6" cy="-12" r="7" fill="#7A5FC8"/>
    <path d="M-54 -60 L -50 -66 L -46 -60" fill="none" stroke="#FFD23F" stroke-width="3" stroke-linecap="round" stroke-linejoin="round"/>
    <path d="M26 -18 L 30 -24 L 34 -18" fill="none" stroke="#FFD23F" stroke-width="3" stroke-linecap="round" stroke-linejoin="round"/>
    <path d="M30 38 L 33 32 L 36 38" fill="none" stroke="#3DB865" stroke-width="3" stroke-linecap="round" stroke-linejoin="round"/>
  </g>
</svg>
