<?xml version="1.0" encoding="UTF-8"?>
<svg xmlns="http://www.w3.org/2000/svg" viewBox="0 0 64 64" width="64" height="64">
  <path d="M50 4 C 50 2 51.5 0.5 53.5 0.5 C 55.5 0.5 57 2 57 4 L 57 22 C 57 24 55.5 25.5 53.5 25.5 C 51.5 25.5 50 24 50 22 Z" fill="#E84A2E"/>
  <path d="M24 6 C 18 1.5 11 1.5 6 6 C 0 12 0 24 7 28 C 1.5 33 0.5 44 8 47 C 4 51 5 57 11 58 C 16.5 59 21.5 56.5 24 52 C 27 49.5 29.5 46.5 30.5 42.5 C 34 34 31 15 24 6 Z" fill="#2E9E4F"/>
  <path d="M24 6 C 18 1.5 11 1.5 6 6 C 0 12 0 24 7 28" fill="none" stroke="#3DB865" stroke-width="2.5" stroke-linecap="round" opacity="0.6"/>
  <circle cx="30" cy="52" r="16" fill="#FFD23F"/>
  <circle cx="30" cy="52" r="16" fill="none" stroke="#B98A2A" stroke-width="2" opacity="0.5"/>
  <circle cx="30" cy="52" r="7.5" fill="#FFE96B"/>
  <path d="M30 45 C 26.5 47.5 24 51 24 53.5 C 24 56.5 26.5 59 30 60.5 C 33.5 59 36 56.5 36 53.5 C 36 51 33.5 47.5 30 45 Z" fill="#F2A900" opacity="0.85"/>
  <circle cx="25" cy="45" r="5.5" fill="#E84A2E"/>
  <circle cx="37" cy="58" r="4.5" fill="#FF8A3C"/>
  <path d="M10 9 L 13 4.5 L 16 9" fill="none" stroke="#FFD23F" stroke-width="2" stroke-linecap="round" stroke-linejoin="round"/>
  <path d="M52 46 L 54.5 42 L 57 46" fill="none" stroke="#FFD23F" stroke-width="2" stroke-linecap="round" stroke-linejoin="round"/>
</svg>
